<?xml version="1.0" standalone="no"?>
<!DOCTYPE svg PUBLIC "-//W3C//DTD SVG 20010904//EN"
 "http://www.w3.org/TR/2001/REC-SVG-20010904/DTD/svg10.dtd">
<svg version="1.0" xmlns="http://www.w3.org/2000/svg"
 width="558.000000pt" height="558.000000pt" viewBox="0 0 558.000000 558.000000"
 preserveAspectRatio="xMidYMid meet">
<metadata>
Created by potrace 1.14, written by Peter Selinger 2001-2017
</metadata>
<g transform="translate(0.000000,558.000000) scale(0.100000,-0.100000)"
fill="#000000" stroke="none">
<path d="M1902 3778 c-17 -17 -17 -1759 0 -1776 17 -17 1759 -17 1776 0 17 17
17 1759 0 1776 -17 17 -1759 17 -1776 0z m1708 -888 l0 -820 -820 0 -820 0 0
820 0 820 820 0 820 0 0 -820z"/>
<path d="M2702 3418 c-9 -9 -12 -134 -12 -500 l0 -488 -260 0 -260 0 -2 341
c-3 313 -4 343 -20 353 -13 8 -23 8 -35 0 -17 -10 -18 -40 -18 -390 l0 -379
324 -3 c230 -2 328 1 337 9 12 9 14 103 14 528 0 535 0 541 -40 541 -9 0 -21
-5 -28 -12z"/>
<path d="M2901 3416 c-8 -9 -10 -157 -9 -531 3 -481 4 -519 21 -529 12 -8 22
-8 35 0 15 10 17 31 20 163 l3 151 247 0 c180 0 251 3 260 12 9 9 12 72 12
220 l0 208 -37 23 c-111 69 -514 297 -526 297 -8 0 -20 -6 -26 -14z m312 -236
l197 -113 0 -158 0 -159 -220 0 -220 0 0 286 0 286 23 -14 c12 -8 111 -65 220
-128z"/>
</g>
</svg>
